<?xml version="1.0" encoding="UTF-8"?>
<svg version="1.1" xmlns="http://www.w3.org/2000/svg" width="300" height="300">
<path d="M0 0 C1.07599804 0.79453806 2.13599713 1.61081734 3.1875 2.4375 C4.47333984 3.41396484 4.47333984 3.41396484 5.78515625 4.41015625 C11.0815434 8.51467006 11.0815434 8.51467006 13.1875 10.4375 C13.1875 11.0975 13.1875 11.7575 13.1875 12.4375 C13.76709473 12.7046582 14.34668945 12.97181641 14.94384766 13.24707031 C17.24442443 14.46770278 19.07768774 15.83040567 21.0859375 17.484375 C21.81296875 18.0825 22.54 18.680625 23.2890625 19.296875 C24.03929687 19.92078125 24.78953125 20.5446875 25.5625 21.1875 C26.305 21.7959375 27.0475 22.404375 27.8125 23.03125 C40.45889692 33.48798809 40.45889692 33.48798809 41.1875 38.4375 C41.39296933 44.00480969 40.92651973 49.15924193 39.98046875 54.63671875 C39.79137688 55.77207817 39.79137688 55.77207817 39.59846497 56.93037415 C39.33169153 58.52336106 39.06176408 60.11582272 38.78881836 61.70776367 C38.37925649 64.10013655 37.98081212 66.49415762 37.58398438 68.88867188 C32.69257414 98.06646311 32.69257414 98.06646311 27.14453125 103.40234375 C23.35905796 106.00766949 19.63057389 107.15573136 15.25 108.4375 C14.40099121 108.6945874 13.55198242 108.9516748 12.67724609 109.21655273 C10.18376752 109.96779609 7.68607359 110.70341773 5.1875 111.4375 C3.39505859 111.98083984 3.39505859 111.98083984 1.56640625 112.53515625 C-1.88076904 113.55730787 -5.3383149 114.51105064 -8.8125 115.4375 C-9.6360498 115.65857422 -10.45959961 115.87964844 -11.30810547 116.10742188 C-14.07577775 116.84096188 -16.84907463 117.54838983 -19.625 118.25 C-20.49688965 118.48146729 -21.3687793 118.71293457 -22.26708984 118.95141602 C-28.96427326 120.59798224 -35.32694903 121.48513417 -41.4921875 117.86328125 C-47.76331995 111.82647938 -53.04207145 105.31168287 -58.29589844 98.40234375 C-61.04642215 94.83888354 -63.90197181 91.36065243 -66.75 87.875 C-79.60259868 72.12014019 -79.60259868 72.12014019 -78.8125 63.4375 C-78.06928361 60.34429407 -76.99655186 57.41178785 -75.875 54.4375 C-75.56433594 53.59026367 -75.25367187 52.74302734 -74.93359375 51.87011719 C-74.25912045 50.03589502 -73.57939955 48.20359575 -72.89501953 46.37304688 C-71.75687729 43.28666385 -70.67082869 40.1849558 -69.58984375 37.078125 C-68.83171917 34.94756413 -68.07262118 32.81734936 -67.3125 30.6875 C-66.96968994 29.68847656 -66.62687988 28.68945312 -66.27368164 27.66015625 C-63.62220687 20.3850151 -60.53126763 13.8650112 -53.37744141 10.18481445 C-50.54957433 9.10447965 -47.73103637 8.24087496 -44.8125 7.4375 C-43.76545898 7.13827637 -42.71841797 6.83905273 -41.63964844 6.53076172 C-38.33046904 5.61088687 -35.01239555 4.73622149 -31.6875 3.875 C-21.58989418 1.24337919 -21.58989418 1.24337919 -11.6887207 -2.03320312 C-7.29184518 -3.2735969 -3.86166533 -2.14536963 0 0 Z " fill="#868883" transform="translate(180.8125,161.5625)"/>
<path d="M0 0 C3.41861559 1.81642321 6.68754104 3.86028165 9.95654297 5.93115234 C12.92889431 7.78679386 15.9412956 9.56612469 18.9609375 11.34375 C28.14118154 16.76575789 28.14118154 16.76575789 32.2890625 19.25390625 C33.21887939 19.80933105 34.14869629 20.36475586 35.10668945 20.93701172 C38.54594077 23.21104257 40.17210059 24.56317677 41.48828125 28.51171875 C41.58019166 29.86609664 41.61894921 31.22454003 41.62109375 32.58203125 C41.62318848 33.38785645 41.6252832 34.19368164 41.62744141 35.02392578 C41.62043213 36.3172583 41.62043213 36.3172583 41.61328125 37.63671875 C41.60989746 38.52601074 41.60651367 39.41530273 41.60302734 40.33154297 C41.5385564 48.75324693 41.21825828 57.12138036 40.48828125 65.51171875 C40.41222656 66.53523438 40.33617187 67.55875 40.2578125 68.61328125 C39.68212644 73.20522414 39.12416159 74.99945937 35.4140625 77.98828125 C28.92226939 81.76638133 21.45242286 83.28169938 14.23828125 85.13671875 C12.78613838 85.52092817 11.33431244 85.9063375 9.8828125 86.29296875 C6.39844348 87.21726624 2.9094736 88.12210784 -0.58270264 89.01641846 C-2.41009792 89.48562626 -4.23562731 89.96208364 -6.06103516 90.43896484 C-7.11468262 90.71047363 -8.16833008 90.98198242 -9.25390625 91.26171875 C-10.15995605 91.49632812 -11.06600586 91.7309375 -11.99951172 91.97265625 C-18.83886227 93.44022535 -23.39134717 92.97967525 -29.51171875 89.51171875 C-31.67306905 87.94812986 -33.75244829 86.371838 -35.82421875 84.69921875 C-36.415979 84.22782471 -37.00773926 83.75643066 -37.61743164 83.27075195 C-44.66314089 77.63473165 -51.64346648 71.91235914 -58.56982422 66.13037109 C-59.88506209 65.03406394 -61.20725703 63.94605903 -62.53564453 62.86572266 C-63.16841309 62.34284668 -63.80118164 61.8199707 -64.453125 61.28125 C-65.01845947 60.81952393 -65.58379395 60.35779785 -66.16625977 59.88208008 C-68.42698976 57.57950751 -68.51649014 55.41709817 -68.67480469 52.27758789 C-68.4180921 46.34975613 -66.80803633 40.7807154 -65.31347656 35.06860352 C-64.76317562 32.95481482 -64.23441633 30.83640366 -63.70703125 28.71679688 C-63.35676025 27.35513587 -63.00523911 25.99379572 -62.65234375 24.6328125 C-62.33813477 23.41005615 -62.02392578 22.1872998 -61.70019531 20.92749023 C-60.18104928 16.56134971 -58.43133271 12.82860244 -54.5390625 10.15844727 C-48.63023918 7.81079445 -42.66938532 6.02690818 -36.51171875 4.44921875 C-31.18620286 3.06267214 -25.90220162 1.68664262 -20.703125 -0.125 C-13.53627411 -2.55612697 -7.09852387 -3.00838442 0 0 Z " fill="#868883" transform="translate(258.51171875,90.48828125)"/>
<path d="M0 0 C2.69880387 1.66630694 4.97327058 3.55525764 7 6 C7 6.66 7 7.32 7 8 C7.66 8 8.32 8 9 8 C10.33984375 9.36328125 10.33984375 9.36328125 11.9375 11.3125 C15.90192517 16.00457282 20.23010866 20.22217388 24.64453125 24.484375 C27.2094877 27.22373148 28.92532707 29.25084329 29.08862305 33.07592773 C28.42576056 38.51654147 27.05111536 43.07472883 24.8125 48.0625 C24.17485253 49.54331223 23.53948927 51.02510984 22.90625 52.5078125 C22.5865625 53.25192383 22.266875 53.99603516 21.9375 54.76269531 C20.46196339 58.28400194 19.13462682 61.85638353 17.8125 65.4375 C17.56338867 66.10128662 17.31427734 66.76507324 17.05761719 67.44897461 C15.99201424 70.29093908 14.95429356 73.13553719 13.984375 76.01171875 C11.86341002 82.02411523 9.58609314 85.77275574 4 89 C-5.87405612 92.81003374 -16.16333365 95.56578647 -26.38330078 98.27734375 C-28.66106073 98.8846141 -30.93386927 99.50857882 -33.20703125 100.1328125 C-34.67160304 100.52445593 -36.13643744 100.91511895 -37.6015625 101.3046875 C-38.27240875 101.49102753 -38.943255 101.67736755 -39.63442993 101.86935425 C-43.43189264 102.85565239 -46.23853655 103.20412063 -50 102 C-54.99977207 98.90565288 -57.42482618 94.51456658 -60.3125 89.5625 C-61.27448135 87.94906475 -62.23672308 86.33578473 -63.19921875 84.72265625 C-63.90570557 83.52793701 -63.90570557 83.52793701 -64.62646484 82.30908203 C-66.58618616 79.01454875 -68.60300134 75.75654143 -70.625 72.5 C-75.44691454 64.70621161 -75.44691454 64.70621161 -74.70458984 58.80419922 C-73.19117261 52.78094546 -69.82700067 47.4467074 -66.8125 42.0625 C-66.14385279 40.83991889 -65.47652595 39.61661469 -64.81054688 38.39257812 C-50.60358213 12.4044145 -50.60358213 12.4044145 -33.1171875 7.1484375 C-31.03833259 6.55073395 -28.9575585 5.9596686 -26.875 5.375 C-25.82957031 5.0759375 -24.78414062 4.776875 -23.70703125 4.46875 C-21.6947257 3.89380556 -19.68142263 3.3223374 -17.66699219 2.75488281 C-15.44232775 2.12519932 -13.22491195 1.47587467 -11.0078125 0.8203125 C-7.17752375 -0.22431171 -3.91157137 -0.90149496 0 0 Z " fill="#868883" transform="translate(75,139)"/>
<path d="M0 0 C0.63679688 0.45890625 1.27359375 0.9178125 1.9296875 1.390625 C3.16332031 2.26460938 3.16332031 2.26460938 4.421875 3.15625 C6.29318797 4.50274715 8.15492953 5.86262739 10.0078125 7.234375 C11.98280526 8.69185629 13.97297861 10.12895409 15.9765625 11.546875 C17.43835938 12.58328125 17.43835938 12.58328125 18.9296875 13.640625 C20.26 14.57648438 20.26 14.57648438 21.6171875 15.53125 C25.55407774 18.69672256 25.55407774 18.69672256 26.9296875 21.390625 C26.71134653 27.85687686 24.39352267 34.10324764 22.5546875 40.265625 C22.25046875 41.30332031 21.94625 42.34101562 21.6328125 43.41015625 C20.74797243 46.40878092 19.84030918 49.39974773 18.9296875 52.390625 C18.68057617 53.2559082 18.43146484 54.12119141 18.17480469 55.01269531 C16.84433185 59.41099726 15.76972507 62.5656066 11.9296875 65.390625 C3.73138552 69.30839763 -5.93705835 70.9860156 -14.70825195 73.19677734 C-19.92746107 74.52075648 -25.0371617 75.96815081 -30.11474609 77.7644043 C-33.64317091 78.89429314 -36.47384833 79.49144388 -40.0703125 78.390625 C-43.19142532 76.34350728 -45.71371342 73.80317107 -48.31787109 71.14306641 C-50.47840283 68.98253467 -52.70617272 66.9000669 -54.93359375 64.80859375 C-56.68898795 63.12915804 -58.44287851 61.44814936 -60.1953125 59.765625 C-61.06196533 58.95440186 -61.92861816 58.14317871 -62.8215332 57.30737305 C-68.8045866 51.44863042 -68.8045866 51.44863042 -69.91796875 47.015625 C-68.67972595 41.7202825 -66.6321977 36.95470058 -64.3828125 32.015625 C-63.94775391 31.025625 -63.51269531 30.035625 -63.06445312 29.015625 C-55.30691582 11.59277085 -55.30691582 11.59277085 -49.0703125 7.390625 C-46.44212707 6.39932284 -43.93499156 5.56217385 -41.2421875 4.8125 C-40.49374573 4.59619934 -39.74530396 4.37989868 -38.97418213 4.15704346 C-37.39574838 3.70431949 -35.81559768 3.25754399 -34.23388672 2.81640625 C-31.83669383 2.14521164 -29.44778238 1.4490826 -27.05859375 0.75 C-25.51605798 0.31097583 -23.97310115 -0.12657211 -22.4296875 -0.5625 C-21.72624207 -0.76868958 -21.02279663 -0.97487915 -20.29803467 -1.18731689 C-13.33003388 -3.09559077 -6.32563304 -4.13935434 0 0 Z " fill="#868883" transform="translate(157.0703125,79.609375)"/>
<path d="M0 0 C0.76022461 0.29293945 1.52044922 0.58587891 2.30371094 0.88769531 C7.05695976 2.94027703 11.74957366 5.08872282 16.4140625 7.3359375 C17.41179687 7.80515625 18.40953125 8.274375 19.4375 8.7578125 C22.25283481 10.1058961 25.02770713 11.50578342 27.7890625 12.9609375 C28.53768555 13.3518457 29.28630859 13.74275391 30.05761719 14.14550781 C32 15.3125 32 15.3125 34.7890625 17.9609375 C35.30324167 21.13695576 35.28361939 22.87551197 34.7890625 25.9609375 C34.65193848 26.89357422 34.51481445 27.82621094 34.37353516 28.78710938 C33.85554297 31.94640868 33.2407711 35.07404514 32.6015625 38.2109375 C32.30668945 39.82355469 32.30668945 39.82355469 32.00585938 41.46875 C30.43274472 49.23267588 30.43274472 49.23267588 27.5 52.55078125 C21.86433353 55.48230228 15.85932506 57.17307338 9.7890625 58.9609375 C8.76232422 59.26531738 7.73558594 59.56969727 6.67773438 59.88330078 C3.24158736 60.88957255 -0.20159978 61.86695958 -3.6484375 62.8359375 C-4.76178467 63.15860596 -5.87513184 63.48127441 -7.0222168 63.8137207 C-14.81885095 65.94913445 -20.69750762 67.11990603 -28.03515625 62.9921875 C-29.33301733 62.16405855 -30.62057594 61.31960553 -31.8984375 60.4609375 C-32.58180176 60.0167749 -33.26516602 59.5726123 -33.96923828 59.11499023 C-36.0612588 57.74675738 -38.13708831 56.35652183 -40.2109375 54.9609375 C-40.85981934 54.53055176 -41.50870117 54.10016602 -42.17724609 53.65673828 C-52.76898357 46.6238684 -52.76898357 46.6238684 -55.2109375 42.9609375 C-54.63617307 36.57460477 -52.12027871 30.73508184 -49.8984375 24.7734375 C-49.50720703 23.68095703 -49.11597656 22.58847656 -48.71289062 21.46289062 C-48.32423828 20.41681641 -47.93558594 19.37074219 -47.53515625 18.29296875 C-47.18541748 17.34139893 -46.83567871 16.3898291 -46.4753418 15.40942383 C-44.44869083 11.48486646 -42.20912867 10.32677043 -38.11401367 8.82592773 C-36.3270105 8.30301147 -36.3270105 8.30301147 -34.50390625 7.76953125 C-33.86028641 7.57875504 -33.21666656 7.38797882 -32.55354309 7.19142151 C-30.50404772 6.58593567 -28.45139623 5.99206122 -26.3984375 5.3984375 C-25.0303761 4.99619991 -23.66253502 4.59321217 -22.29492188 4.18945312 C-18.60339824 3.10233265 -14.90836975 2.0278183 -11.2109375 0.9609375 C-9.99623779 0.56704834 -8.78153809 0.17315918 -7.5300293 -0.23266602 C-4.26764831 -1.02528421 -3.03852748 -1.18479192 0 0 Z " fill="#868883" transform="translate(216.2109375,23.0390625)"/>
<path d="M0 0 C0 0.66 0 1.32 0 2 C0.53238281 2.23074219 1.06476563 2.46148437 1.61328125 2.69921875 C4.74710591 4.40717884 7.43739509 6.56000152 10.1875 8.8125 C10.73341797 9.23853516 11.27933594 9.66457031 11.84179688 10.10351562 C14.12860026 11.97659745 15.81655712 13.60852226 17.078125 16.30078125 C16.95831447 20.44023505 15.31734111 23.66985378 13.5625 27.375 C13.19922607 28.16213379 12.83595215 28.94926758 12.46166992 29.76025391 C11.3294825 32.18459319 10.17124406 34.59430816 9 37 C8.64099609 37.73863281 8.28199219 38.47726563 7.91210938 39.23828125 C6.89889782 41.29478113 5.86296752 43.33731234 4.8125 45.375 C4.50449463 45.98649902 4.19648926 46.59799805 3.87915039 47.22802734 C0.78583337 53.04120294 -2.96659533 55.98953995 -9.1875 57.9375 C-10.74984375 58.42863281 -10.74984375 58.42863281 -12.34375 58.9296875 C-17.39757419 60.40911894 -22.46736537 61.82710823 -27.55078125 63.20141602 C-31.50243608 64.27474134 -35.34980253 65.43586345 -39.1875 66.875 C-43.50231029 68.14822271 -45.66072027 68.10009909 -50 67 C-52.1443243 65.18557174 -53.73940261 63.62385415 -55.5 61.5 C-55.96776855 60.96117187 -56.43553711 60.42234375 -56.91748047 59.8671875 C-58.2993869 58.2612267 -59.6527142 56.63504571 -61 55 C-61.73476563 54.1234375 -62.46953125 53.246875 -63.2265625 52.34375 C-68.649875 45.64830246 -68.649875 45.64830246 -69 42 C-66.78311383 35.52253571 -62.62200265 29.56862633 -58.8828125 23.87890625 C-57.56864138 21.86947863 -56.29548824 19.83288714 -55.0546875 17.77734375 C-54.39726563 16.71644531 -53.73984375 15.65554687 -53.0625 14.5625 C-52.47597656 13.59441406 -51.88945313 12.62632813 -51.28515625 11.62890625 C-45.4674803 4.93609273 -35.78151939 3.15166189 -27.53637695 0.74316406 C-25.43280572 0.12361744 -23.33901243 -0.52360802 -21.24414062 -1.171875 C-19.89113349 -1.57203582 -18.53763261 -1.97053178 -17.18359375 -2.3671875 C-15.97243896 -2.72925293 -14.76128418 -3.09131836 -13.51342773 -3.46435547 C-8.15390393 -4.28144915 -4.45316343 -2.96877562 0 0 Z " fill="#858782" transform="translate(73,70)"/>
<path d="M0 0 C0.89267578 0.50337891 1.78535156 1.00675781 2.70507812 1.52539062 C6.10513833 3.45183557 9.43486479 5.39407653 12.6875 7.5625 C13.45114396 13.54946867 11.66650567 18.14010254 9.4375 23.5625 C9.13714844 24.33078125 8.83679688 25.0990625 8.52734375 25.890625 C3.20044443 39.21920714 3.20044443 39.21920714 -3.3125 42.5625 C-5.85911829 43.47368977 -8.36953082 44.30729296 -10.95703125 45.078125 C-11.68564865 45.29821228 -12.41426605 45.51829956 -13.16496277 45.74505615 C-14.70106252 46.20584603 -16.23830853 46.66283001 -17.77661133 47.11621094 C-20.11215495 47.80869149 -22.43957699 48.52481972 -24.76757812 49.2421875 C-26.26779128 49.68897298 -27.76843 50.13433247 -29.26953125 50.578125 C-29.95626419 50.79261292 -30.64299713 51.00710083 -31.35054016 51.22808838 C-37.14132129 52.8904144 -42.33095637 53.16551782 -47.82543945 50.21142578 C-48.51855225 49.6492334 -49.21166504 49.08704102 -49.92578125 48.5078125 C-50.69857422 47.89292969 -51.47136719 47.27804688 -52.26757812 46.64453125 C-53.04552734 45.99871094 -53.82347656 45.35289063 -54.625 44.6875 C-55.82092773 43.73037109 -55.82092773 43.73037109 -57.04101562 42.75390625 C-64.44449746 36.78877959 -64.44449746 36.78877959 -66.3125 34.5625 C-66.21678337 28.61334325 -63.90757075 24.15401244 -61.125 19.0625 C-60.75052734 18.34191406 -60.37605469 17.62132813 -59.99023438 16.87890625 C-56.17198555 9.75751805 -52.41706293 3.70627219 -44.50170898 1.01586914 C-43.44898804 0.69863892 -43.44898804 0.69863892 -42.375 0.375 C-41.63644775 0.13579834 -40.89789551 -0.10340332 -40.13696289 -0.34985352 C-37.86944175 -1.07242755 -35.59312527 -1.75757434 -33.3125 -2.4375 C-32.6122168 -2.65599609 -31.91193359 -2.87449219 -31.19042969 -3.09960938 C-18.52393901 -7.03706463 -11.44867656 -6.64952654 0 0 Z " fill="#858782" transform="translate(144.3125,24.4375)"/>
</svg>
