<?xml version="1.0" encoding="UTF-8" standalone="no"?>
<svg
   version="1.1"
   width="15.370401"
   height="13.472622"
   id="svg16"
   xmlns="http://www.w3.org/2000/svg"
   xmlns:svg="http://www.w3.org/2000/svg">
  <defs
     id="defs20" />
  <path
     d="m 9.2608817,7.3089745 c 0.05509,0.04068 0.109363,0.08247 0.1632,0.1248 0.06583,0.04999 0.06583,0.04999 0.133,0.101 0.271174,0.21015 0.271174,0.21015 0.379,0.3086 0,0.03379 0,0.06758 0,0.1024 0.02968,0.01368 0.05935,0.02736 0.08992,0.04145 0.117791,0.0625 0.211653,0.132267 0.314476,0.21695 0.03722,0.03062 0.07445,0.06125 0.1128,0.0928 0.03841,0.03194 0.07682,0.06389 0.1164,0.0968 0.03802,0.03115 0.07603,0.0623 0.1152,0.0944 0.647496,0.535384 0.647496,0.535384 0.6848,0.7888 0.01053,0.285045 -0.01336,0.548952 -0.0618,0.8293995 -0.0097,0.05813 -0.0097,0.05813 -0.01956,0.117434 -0.01366,0.08156 -0.02748,0.163096 -0.04145,0.244603 -0.02097,0.122489 -0.04137,0.245064 -0.06169,0.367662 -0.250441,1.493903 -0.250441,1.493903 -0.5345,1.767099 -0.193816,0.133394 -0.384716,0.192175 -0.609,0.257802 -0.04347,0.01317 -0.08694,0.02632 -0.1317253,0.03989 -0.127666,0.03846 -0.255549,0.07613 -0.383475,0.113714 -0.09177,0.02782 -0.09177,0.02782 -0.1854,0.0562 -0.176495,0.05233 -0.353522,0.101165 -0.5314,0.1486 -0.04217,0.01131 -0.08433,0.02264 -0.127775,0.0343 -0.141705,0.03756 -0.283697,0.07378 -0.425825,0.109701 -0.04464,0.01186 -0.08928,0.0237 -0.135276,0.03591 -0.342894,0.0843 -0.668664,0.129726 -0.984324,-0.05571 -0.321082,-0.309085 -0.591354,-0.642643 -0.860351,-0.996402 -0.140825,-0.182448 -0.28703,-0.360534 -0.432849,-0.538998 -0.658053,-0.80665 -0.658053,-0.80665 -0.6176,-1.2512 0.03805,-0.158373 0.09298,-0.308517 0.1504,-0.4608 0.0159,-0.04338 0.03181,-0.08676 0.0482,-0.1314505 0.03453,-0.09391 0.06933,-0.187725 0.104376,-0.28145 0.05827,-0.158022 0.113878,-0.31683 0.169224,-0.475899 0.03882,-0.109086 0.07768,-0.218152 0.1166,-0.3272 0.01755,-0.05115 0.0351,-0.102301 0.05319,-0.155 0.135755,-0.372488 0.294013,-0.706312 0.660288,-0.894739 0.144787,-0.05531 0.289096,-0.09953 0.438525,-0.140661 0.05361,-0.01531 0.107217,-0.03064 0.162449,-0.04643 0.169431,-0.0471 0.339315,-0.09188 0.509551,-0.135974 0.516998,-0.134739 0.516998,-0.134739 1.023937,-0.302501 0.22512,-0.06351 0.400746,-0.0057 0.598463,0.104101 z"
     fill="#868883"
     id="path2"
     style="stroke-width:0.0512" />
  <path
     d="m 13.239082,3.6699745 c 0.175033,0.093 0.342403,0.197646 0.509776,0.303674 0.152184,0.09501 0.306419,0.186112 0.461024,0.277126 0.470028,0.277606 0.470028,0.277606 0.6824,0.405 0.04761,0.02844 0.09521,0.05688 0.144262,0.08617 0.17609,0.116431 0.259349,0.18566 0.326738,0.387826 0.0047,0.06934 0.0067,0.138896 0.0068,0.208398 1.02e-4,0.04126 1.6e-4,0.08252 3.2e-4,0.125026 -3.2e-4,0.06622 -3.2e-4,0.06622 -8e-4,0.133776 -1.54e-4,0.04553 -3.2e-4,0.09106 -4.8e-4,0.137974 -0.0033,0.431192 -0.0197,0.85964 -0.05707,1.289226 -0.0039,0.0524 -0.0078,0.104808 -0.01179,0.158798 -0.02948,0.235109 -0.05804,0.326973 -0.248,0.48 -0.332381,0.19344 -0.714837,0.271024 -1.0842,0.366002 -0.07435,0.01967 -0.148683,0.0394 -0.223,0.0592 -0.1784,0.04732 -0.357035,0.09365 -0.535835,0.13944 -0.09356,0.02402 -0.187029,0.04842 -0.280491,0.07283 -0.05395,0.0139 -0.107893,0.0278 -0.163474,0.04213 -0.04639,0.01202 -0.09278,0.02402 -0.140576,0.0364 -0.350174,0.07514 -0.583262,0.05156 -0.896624,-0.126 -0.110662,-0.08006 -0.217126,-0.160763 -0.3232,-0.2464 -0.0303,-0.02414 -0.0606,-0.04827 -0.09181,-0.07314 -0.360741,-0.288564 -0.718133,-0.58155 -1.072763,-0.877588 -0.06734,-0.05613 -0.135037,-0.111837 -0.20305,-0.167149 -0.0324,-0.02677 -0.06479,-0.05354 -0.09817,-0.08113 -0.02895,-0.02364 -0.05789,-0.04728 -0.08771,-0.07164 -0.115748,-0.117892 -0.120331,-0.228607 -0.128436,-0.389351 0.01314,-0.303504 0.09558,-0.588638 0.172099,-0.881099 0.02818,-0.108226 0.05525,-0.216688 0.08225,-0.325213 0.01793,-0.06972 0.03593,-0.139417 0.054,-0.209099 0.01609,-0.06261 0.03218,-0.125211 0.04875,-0.189714 0.07778,-0.223545 0.167366,-0.414662 0.366651,-0.551374 0.302531,-0.1202 0.607726,-0.211534 0.923,-0.292312 0.272669,-0.07099 0.54321,-0.141445 0.809402,-0.2342 0.366942,-0.124474 0.696555,-0.14763 1.06,0.0064 z"
     fill="#868883"
     id="path4"
     style="stroke-width:0.0512" />
  <path
     d="m 3.8432817,6.1537745 c 0.138179,0.08531 0.254632,0.182029 0.3584,0.3072 0,0.03379 0,0.06758 0,0.1024 0.03379,0 0.06758,0 0.1024,0 0.0686,0.0698 0.0686,0.0698 0.1504,0.1696 0.202979,0.240234 0.424582,0.456174 0.6506,0.6744 0.131326,0.140254 0.219177,0.244042 0.227537,0.439886 -0.03394,0.27856 -0.10432,0.51194 -0.218937,0.767314 -0.03265,0.07582 -0.06518,0.151685 -0.0976,0.227598 -0.01637,0.0381 -0.03274,0.0762 -0.0496,0.115452 -0.07555,0.180291 -0.143508,0.363196 -0.2112,0.54655 -0.01275,0.03399 -0.02551,0.06797 -0.03865,0.102987 -0.05456,0.145509 -0.10769,0.291152 -0.15735,0.4384125 -0.108594,0.307834 -0.225192,0.499765 -0.5112,0.665 -0.505552,0.195074 -1.032362,0.336168 -1.555624,0.474998 -0.116623,0.03109 -0.232991,0.06304 -0.349376,0.095 -0.07499,0.02005 -0.149986,0.04005 -0.225,0.06 -0.03435,0.0095 -0.06869,0.01908 -0.104084,0.02891 -0.194428,0.0505 -0.338129,0.06834 -0.530716,0.0067 -0.255988,-0.158432 -0.38015098,-0.383254 -0.52799998,-0.6368 -0.04925,-0.08261 -0.09852,-0.165208 -0.1478,-0.2478 -0.03617,-0.06117 -0.03617,-0.06117 -0.07308,-0.123576 -0.100337,-0.16868 -0.203598,-0.335489 -0.307124,-0.5022235 -0.246882,-0.399043 -0.246882,-0.399043 -0.208876,-0.701225 0.07749,-0.308391 0.249733,-0.581504 0.404076,-0.857175 0.03423,-0.0626 0.0684,-0.12523 0.1025,-0.1879 0.72739698,-1.330594 0.72739698,-1.330594 1.62269998,-1.5997 0.106438,-0.0306 0.212972,-0.06086 0.3196,-0.0908 0.05353,-0.01531 0.107052,-0.03062 0.1622,-0.0464 0.10303,-0.02944 0.206112,-0.0587 0.309249,-0.08775 0.113904,-0.03224 0.227435,-0.06549 0.340951,-0.09905 0.19611,-0.05348 0.363328,-0.08815 0.5636,-0.042 z"
     fill="#868883"
     id="path6"
     style="stroke-width:0.0512" />
  <path
     d="m 8.0452817,3.1129745 c 0.0326,0.0235 0.06521,0.04699 0.0988,0.0712 0.06316,0.04475 0.06316,0.04475 0.1276,0.0904 0.09581,0.06894 0.191132,0.138566 0.286,0.2088 0.10112,0.07462 0.203016,0.148202 0.3056,0.2208 0.07484,0.05306 0.07484,0.05306 0.1512,0.1072 0.06811,0.04792 0.06811,0.04792 0.1376,0.0968 0.201569,0.162072 0.201569,0.162072 0.272,0.3 -0.01118,0.331072 -0.129852,0.650886 -0.224,0.9664 -0.01557,0.05313 -0.03115,0.106259 -0.0472,0.161 -0.0453,0.15353 -0.09178,0.306666 -0.1384,0.4598 -0.01275,0.0443 -0.02551,0.08861 -0.03865,0.13425 -0.06812,0.225192 -0.123141,0.386708 -0.31975,0.53135 -0.419752,0.200589 -0.914778,0.286483 -1.363863,0.399674 -0.267224,0.06779 -0.52884,0.141896 -0.788813,0.233864 -0.180654,0.05785 -0.325585,0.08842 -0.509724,0.03206 -0.1598,-0.104813 -0.288943,-0.234878 -0.422276,-0.371075 -0.110619,-0.110619 -0.22468,-0.217242 -0.338724,-0.324325 -0.08988,-0.08599 -0.179676,-0.172056 -0.2694,-0.2582 -0.04437,-0.04153 -0.08875,-0.08307 -0.134463,-0.125862 -0.306333,-0.299968 -0.306333,-0.299968 -0.363337,-0.526938 0.0634,-0.271122 0.168232,-0.51512 0.2834,-0.768 0.02228,-0.05069 0.04455,-0.101376 0.0675,-0.1536 0.397186,-0.892051 0.397186,-0.892051 0.7165,-1.1072 0.134563,-0.05075 0.262928,-0.09362 0.4008,-0.132 0.03832,-0.01107 0.07664,-0.02215 0.116121,-0.03356 0.08082,-0.02318 0.16172,-0.04605 0.242704,-0.06864 0.122736,-0.03437 0.245048,-0.07001 0.367375,-0.1058 0.07898,-0.02248 0.157977,-0.04488 0.237,-0.0672 0.03602,-0.01056 0.07203,-0.02112 0.10914,-0.03199 0.356762,-0.0977 0.715388,-0.151144 1.03926,0.06079 z"
     fill="#868883"
     id="path8"
     style="stroke-width:0.0512" />
  <path
     d="m 11.073282,0.21657346 c 0.03892,0.015 0.07785,0.03 0.11795,0.04545 0.243366,0.105092 0.483629,0.215093 0.72245,0.33015 0.05108,0.02402 0.102168,0.04805 0.1548,0.0728 0.144145,0.06902 0.286219,0.140696 0.4276,0.2152 0.03833,0.02002 0.07666,0.04003 0.11615,0.06065 0.09945,0.05975 0.09945,0.05975 0.24225,0.19535004 0.02633,0.162612 0.02532,0.251626 0,0.4096 -0.007,0.04775 -0.01405,0.0955 -0.02127,0.1447 -0.02652,0.161757 -0.058,0.321891 -0.09073,0.482501 -0.0151,0.08257 -0.0151,0.08257 -0.0305,0.1668 -0.08054,0.397512 -0.08054,0.397512 -0.2307,0.5674 -0.288546,0.150093 -0.596002,0.236661 -0.9068,0.3282 -0.05257,0.01558 -0.105138,0.03117 -0.1593,0.04722 -0.175931,0.05152 -0.352222,0.101563 -0.5287,0.151176 -0.057,0.01652 -0.114007,0.03304 -0.172738,0.05006 -0.399187,0.109333 -0.700174,0.169277 -1.0758623,-0.04206 -0.06645,-0.0424 -0.132373,-0.08564 -0.1978,-0.1296 -0.03499,-0.02274 -0.06998,-0.04548 -0.106024,-0.06891 -0.107112,-0.07005 -0.213396,-0.141233 -0.319576,-0.212686 -0.03322,-0.02204 -0.06645,-0.04407 -0.100676,-0.06678 -0.542296,-0.360083 -0.542296,-0.360083 -0.667324,-0.547624 0.02943,-0.326981 0.158241,-0.625965 0.272,-0.931201 0.02003,-0.05593 0.04006,-0.11187 0.0607,-0.1695 0.0199,-0.05356 0.0398,-0.107118 0.0603,-0.1623 0.01791,-0.04872 0.03581,-0.09744 0.05426,-0.147637 0.103765,-0.20093704 0.21843,-0.26023204 0.428101,-0.33707504 0.09149,-0.02677 0.09149,-0.02677 0.184837,-0.05409 0.03295,-0.0098 0.06591,-0.01953 0.09986,-0.0296 0.104934,-0.031 0.210029,-0.06141 0.315141,-0.0918 0.07004,-0.02059 0.140078,-0.04123 0.2101,-0.0619 0.1890053,-0.05566 0.3781913,-0.110675 0.5675003,-0.1653 0.06219,-0.02017 0.124385,-0.04033 0.188462,-0.06111 0.167034,-0.04058 0.229965,-0.04875 0.385538,0.01191 z"
     fill="#868883"
     id="path10"
     style="stroke-width:0.0512" />
  <path
     d="m 3.7408817,2.6209745 c 0,0.03379 0,0.06758 0,0.1024 0.02726,0.01181 0.05452,0.02363 0.0826,0.0358 0.160452,0.08745 0.298195,0.197672 0.439,0.313 0.02795,0.02181 0.0559,0.04363 0.0847,0.0661 0.117084,0.0959 0.203508,0.179456 0.2681,0.317301 -0.0061,0.211939 -0.09015,0.377296 -0.18,0.567 -0.0186,0.0403 -0.0372,0.0806 -0.05636,0.122125 -0.05797,0.124126 -0.11727,0.247502 -0.177238,0.370675 -0.01838,0.03782 -0.03676,0.07564 -0.0557,0.1146 -0.05188,0.105293 -0.104916,0.20987 -0.1587,0.3142 -0.01578,0.03131 -0.03154,0.06262 -0.04779,0.09487 -0.158377,0.297635 -0.350502,0.44859 -0.669012,0.548326 -0.07999,0.02515 -0.07999,0.02515 -0.1616,0.0508 -0.258756,0.07575 -0.518328,0.148347 -0.7786,0.218712 -0.202325,0.05495 -0.399309,0.114403 -0.5958,0.188088 -0.220919,0.06519 -0.331429,0.06273 -0.5536,0.0064 -0.109789,-0.0929 -0.19145798,-0.172859 -0.28159998,-0.2816 -0.02395,-0.02759 -0.0479,-0.05518 -0.07258,-0.0836 -0.07075,-0.08223 -0.140045,-0.165486 -0.209025,-0.2492 -0.03762,-0.04488 -0.07524,-0.08976 -0.114,-0.136 -0.277674,-0.342808 -0.277674,-0.342808 -0.2956,-0.5296 0.113505,-0.331646 0.326553,-0.636486 0.518,-0.9278 0.06729,-0.102883 0.132472,-0.207157 0.196,-0.3124 0.03366,-0.05432 0.06732,-0.108637 0.10199998,-0.1646 0.03003,-0.04957 0.06006,-0.09913 0.091,-0.1502 0.297865,-0.342672 0.793787,-0.434035 1.215937,-0.55735 0.107703,-0.03172 0.214906,-0.06486 0.322163,-0.09805 0.06927,-0.02049 0.138573,-0.04089 0.2079,-0.0612 0.06201,-0.01854 0.124022,-0.03708 0.187913,-0.05618 0.274407,-0.04183 0.463885,0.02537 0.691887,0.177376 z"
     fill="#858782"
     id="path12"
     style="stroke-width:0.0512" />
  <path
     d="m 7.3920817,0.28817346 c 0.0457,0.02577 0.09141,0.05155 0.1385,0.0781 0.174084,0.09863 0.344565,0.198077 0.5111,0.3091 0.0391,0.306533 -0.05227,0.54157404 -0.1664,0.81920004 -0.01538,0.03934 -0.03076,0.07867 -0.0466,0.1192 -0.272736,0.682423 -0.272736,0.682423 -0.6062,0.853601 -0.130388,0.04665 -0.25892,0.08933 -0.3914,0.1288 -0.03731,0.01126 -0.07461,0.02254 -0.113047,0.03415 -0.07865,0.02359 -0.157355,0.04699 -0.236115,0.0702 -0.119581,0.03546 -0.238744,0.07212 -0.357938,0.108851 -0.07681,0.02287 -0.153644,0.04568 -0.2305,0.0684 -0.03516,0.01098 -0.07032,0.02196 -0.106548,0.03328 -0.296488,0.08511 -0.562198,0.0992 -0.843515,-0.05205 -0.03549,-0.02878 -0.07097,-0.05757 -0.107537,-0.08722 -0.03957,-0.03148 -0.07913,-0.06296 -0.1199,-0.0954 -0.03983,-0.03307 -0.07966,-0.06613 -0.1207,-0.1002 -0.06123,-0.04901 -0.06123,-0.04901 -0.1237,-0.099 -0.379059,-0.305414 -0.379059,-0.305414 -0.4747,-0.4194 0.0049,-0.304597 0.123132,-0.532915 0.2656,-0.793601 0.01917,-0.03689 0.03834,-0.07379 0.0581,-0.1118 0.195495,-0.36461504 0.387746,-0.67443804 0.793013,-0.81218704 0.0539,-0.01624 0.0539,-0.01624 0.108887,-0.03281 0.03781,-0.01225 0.07563,-0.02449 0.114587,-0.03711 0.116097,-0.037 0.232645,-0.07207 0.349413,-0.106888 0.03585,-0.01119 0.07171,-0.02237 0.108649,-0.0339 0.648525,-0.201597 1.010778,-0.181755 1.596951,0.1587 z"
     fill="#858782"
     id="path14"
     style="stroke-width:0.0512" />
</svg>
