<?xml version="1.0" encoding="UTF-8" standalone="no"?>
<svg
   version="1.1"
   width="96.06498"
   height="84.203979"
   id="svg16"
   xmlns="http://www.w3.org/2000/svg"
   xmlns:svg="http://www.w3.org/2000/svg">
  <defs
     id="defs20" />
  <path
     d="m 57.880482,45.681192 c 0.34432,0.25425 0.68352,0.51546 1.02,0.78 0.41147,0.31247 0.41147,0.31247 0.83125,0.63125 1.69484,1.31344 1.69484,1.31344 2.36875,1.92875 0,0.2112 0,0.4224 0,0.64 0.18547,0.0855 0.37094,0.17098 0.56203,0.25906 0.73619,0.3906 1.32283,0.82667 1.96547,1.35594 0.23265,0.1914 0.4653,0.3828 0.705,0.58 0.24008,0.19965 0.48015,0.3993 0.7275,0.605 0.2376,0.1947 0.4752,0.3894 0.72,0.59 4.04685,3.34615 4.04685,3.34615 4.28,4.93 0.0658,1.78153 -0.0835,3.43095 -0.38625,5.18375 -0.0605,0.36331 -0.0605,0.36331 -0.12224,0.73396 -0.0854,0.50976 -0.17174,1.01935 -0.25909,1.52877 -0.13105,0.76556 -0.25856,1.53165 -0.38554,2.29789 -1.56526,9.33689 -1.56526,9.33689 -3.34063,11.04437 -1.21135,0.83371 -2.40447,1.20109 -3.80625,1.61126 -0.27168,0.0823 -0.54336,0.16453 -0.82328,0.24929 -0.79791,0.2404 -1.59718,0.4758 -2.39672,0.71071 -0.57358,0.17386 -0.57358,0.17386 -1.15875,0.35125 -1.10309,0.32708 -2.20951,0.63228 -3.32125,0.92875 -0.26353,0.0707 -0.52707,0.14148 -0.79859,0.21437 -0.88566,0.23473 -1.77311,0.46111 -2.66141,0.68563 -0.279,0.0741 -0.55801,0.14813 -0.84547,0.22445 -2.14309,0.5269 -4.17915,0.81079 -6.15203,-0.3482 -2.00676,-1.93178 -3.69596,-4.01652 -5.37719,-6.22751 -0.88016,-1.1403 -1.79394,-2.25334 -2.70531,-3.36874 -4.11283,-5.04156 -4.11283,-5.04156 -3.86,-7.82 0.23783,-0.98983 0.58111,-1.92823 0.94,-2.88 0.0994,-0.27112 0.19883,-0.54223 0.30125,-0.82157 0.21583,-0.58695 0.43334,-1.17328 0.65235,-1.75906 0.3642,-0.98764 0.71174,-1.98019 1.05765,-2.97437 0.2426,-0.68179 0.48551,-1.36345 0.72875,-2.045 0.1097,-0.31969 0.2194,-0.63938 0.33242,-0.96875 0.84847,-2.32805 1.83758,-4.41445 4.1268,-5.59212 0.90492,-0.3457 1.80685,-0.62205 2.74078,-0.87913 0.33505,-0.0957 0.67011,-0.19151 1.01531,-0.29016 1.05894,-0.29436 2.12072,-0.57425 3.18469,-0.84984 3.23124,-0.84212 3.23124,-0.84212 6.39961,-1.89063 1.407,-0.39693 2.50466,-0.0359 3.74039,0.65063 z"
     fill="#868883"
     id="path2"
     style="stroke-width:0.32" />
  <path
     d="m 82.744232,22.937442 c 1.09396,0.58125 2.14002,1.23529 3.1861,1.89796 0.95115,0.59381 1.91512,1.1632 2.8814,1.73204 2.93768,1.73504 2.93768,1.73504 4.265,2.53125 0.29754,0.17773 0.59509,0.35547 0.90164,0.53859 1.10056,0.72769 1.62093,1.16037 2.04211,2.42391 0.0294,0.4334 0.0418,0.8681 0.0425,1.30249 6.4e-4,0.25787 10e-4,0.51573 0.002,0.78141 -0.002,0.41387 -0.002,0.41387 -0.005,0.8361 -9.6e-4,0.28457 -0.002,0.56914 -0.003,0.86234 -0.0206,2.69495 -0.12312,5.37275 -0.35671,8.05766 -0.0244,0.32752 -0.0487,0.65505 -0.0737,0.99249 -0.18422,1.46943 -0.36277,2.04358 -1.55,3 -2.07738,1.209 -4.46773,1.6939 -6.77625,2.28751 -0.46469,0.12294 -0.92927,0.24627 -1.39375,0.37 -1.115,0.29577 -2.23147,0.58532 -3.34897,0.8715 -0.58477,0.15015 -1.16893,0.30261 -1.75307,0.45522 -0.33716,0.0869 -0.67433,0.17376 -1.02171,0.26328 -0.28994,0.0751 -0.57988,0.15015 -0.8786,0.2275 -2.18859,0.46962 -3.64539,0.32224 -5.6039,-0.7875 -0.69164,-0.50035 -1.35704,-1.00477 -2.02,-1.54 -0.18937,-0.15085 -0.37873,-0.3017 -0.57383,-0.45711 -2.25463,-1.80353 -4.48833,-3.63469 -6.70477,-5.48493 -0.42087,-0.35081 -0.84398,-0.69898 -1.26906,-1.04468 -0.20249,-0.16732 -0.40497,-0.33464 -0.61359,-0.50703 -0.18091,-0.14776 -0.36182,-0.29551 -0.54821,-0.44774 -0.72343,-0.73682 -0.75207,-1.42879 -0.80273,-2.43344 0.0821,-1.8969 0.59736,-3.67899 1.07562,-5.50687 0.1761,-0.67641 0.3453,-1.3543 0.51407,-2.03258 0.11208,-0.43573 0.22457,-0.87136 0.33749,-1.30687 0.10055,-0.39129 0.2011,-0.78257 0.30469,-1.18571 0.48613,-1.39716 1.04604,-2.59164 2.29157,-3.44609 1.89082,-0.75125 3.79829,-1.32209 5.76875,-1.82695 1.70418,-0.4437 3.39506,-0.88403 5.05876,-1.46375 2.29339,-0.77796 4.35347,-0.92269 6.625,0.04 z"
     fill="#868883"
     id="path4"
     style="stroke-width:0.32" />
  <path
     d="m 24.020482,38.461192 c 0.86362,0.53321 1.59145,1.13768 2.24,1.92 0,0.2112 0,0.4224 0,0.64 0.2112,0 0.4224,0 0.64,0 0.42875,0.43625 0.42875,0.43625 0.94,1.06 1.26862,1.50146 2.65364,2.85109 4.06625,4.215 0.82079,0.87659 1.36986,1.52526 1.42211,2.74929 -0.21211,1.741 -0.652,3.19962 -1.36836,4.79571 -0.20404,0.47385 -0.40736,0.94803 -0.61,1.42249 -0.1023,0.23812 -0.2046,0.47624 -0.31,0.72157 -0.47217,1.12682 -0.89692,2.26998 -1.32,3.41594 -0.0797,0.21241 -0.15943,0.42482 -0.24156,0.64367 -0.34099,0.90943 -0.67306,1.8197 -0.98344,2.74008 -0.67871,1.92396 -1.40745,3.12353 -3.195,4.15625 -3.1597,1.21921 -6.45226,2.10105 -9.72265,2.96874 -0.72889,0.19433 -1.45619,0.394 -2.1836,0.59375 -0.46866,0.12533 -0.93741,0.25034 -1.40625,0.37501 -0.21467,0.0596 -0.42934,0.11925 -0.65052,0.18069 -1.21518,0.31561 -2.1133096,0.42712 -3.3169796,0.0418 -1.59992,-0.9902 -2.37594,-2.39534 -3.3,-3.98 -0.30783,-0.5163 -0.61575,-1.03255 -0.92375,-1.54875 -0.22607,-0.38231 -0.22607,-0.38231 -0.45672,-0.77235 -0.62711,-1.05425 -1.27249,-2.09681 -1.91953,-3.1389 -1.54301004,-2.49402 -1.54301004,-2.49402 -1.30547004,-4.38266 0.4843,-1.92744 1.56083004,-3.6344 2.52547004,-5.35734 0.21397,-0.39123 0.42751,-0.78269 0.64063,-1.17438 4.54623,-8.31621 4.54623,-8.31621 10.1418696,-9.99812 0.66524,-0.19127 1.33108,-0.38041 1.9975,-0.5675 0.33454,-0.0957 0.66908,-0.1914 1.01375,-0.29 0.64394,-0.18399 1.2882,-0.36686 1.93281,-0.54844 0.7119,-0.2015 1.42147,-0.40928 2.13094,-0.61907 1.22569,-0.33427 2.2708,-0.55097 3.5225,-0.26249 z"
     fill="#868883"
     id="path6"
     style="stroke-width:0.32" />
  <path
     d="m 50.282982,19.456192 c 0.20378,0.14685 0.40755,0.2937 0.6175,0.445 0.39476,0.27967 0.39476,0.27967 0.7975,0.565 0.59882,0.43087 1.19458,0.86604 1.7875,1.305 0.632,0.46639 1.26885,0.92626 1.91,1.38 0.46778,0.33165 0.46778,0.33165 0.945,0.67 0.4257,0.29947 0.4257,0.29947 0.86,0.605 1.25981,1.01295 1.25981,1.01295 1.7,1.875 -0.0699,2.0692 -0.81157,4.06804 -1.4,6.04 -0.0973,0.33206 -0.1947,0.66412 -0.295,1.00625 -0.28315,0.95956 -0.5736,1.91666 -0.865,2.87375 -0.0797,0.27689 -0.15943,0.55378 -0.24156,0.83906 -0.42575,1.40745 -0.76963,2.41693 -1.99844,3.32094 -2.62345,1.25368 -5.71736,1.79052 -8.52414,2.49796 -1.67015,0.42368 -3.30525,0.88685 -4.93008,1.46165 -1.12909,0.36156 -2.03491,0.55265 -3.18578,0.20039 -0.99875,-0.65508 -1.80589,-1.46799 -2.63922,-2.31922 -0.69137,-0.69137 -1.40425,-1.35776 -2.11703,-2.02703 -0.56173,-0.53742 -1.12297,-1.07535 -1.68375,-1.61375 -0.27733,-0.25959 -0.55466,-0.51919 -0.84039,-0.78664 -1.91458,-1.8748 -1.91458,-1.8748 -2.27086,-3.29336 0.39624,-1.69451 1.05145,-3.2195 1.77125,-4.8 0.13922,-0.3168 0.27844,-0.6336 0.42188,-0.96 2.48241,-5.57532 2.48241,-5.57532 4.47812,-6.92 0.84102,-0.31722 1.6433,-0.58511 2.505,-0.825 0.2395,-0.0692 0.47901,-0.13844 0.72576,-0.20975 0.5051,-0.14487 1.01075,-0.28784 1.5169,-0.429 0.7671,-0.21479 1.53155,-0.43755 2.29609,-0.66125 0.49361,-0.14049 0.98736,-0.28051 1.48125,-0.42 0.2251,-0.066 0.45021,-0.13197 0.68213,-0.19995 2.22976,-0.61064 4.47117,-0.94465 6.49537,0.37995 z"
     fill="#868883"
     id="path8"
     style="stroke-width:0.32" />
  <path
     d="m 69.207982,1.3536877 c 0.24328,0.09374 0.48655,0.187481 0.73719,0.284062 1.52104,0.656826 3.02268,1.344329 4.51531,2.063437 0.31928,0.15015 0.63855,0.300301 0.9675,0.455 0.90091,0.431387 1.78887,0.879351 2.6725,1.345001 0.23956,0.12509 0.47912,0.250181 0.72594,0.379062 0.62156,0.373438 0.62156,0.373438 1.51406,1.220937 0.16454,1.016326 0.15826,1.572664 0,2.56 -0.0439,0.298444 -0.0878,0.5968883 -0.13296,0.9043753 -0.16576,1.01098 -0.36249,2.01182 -0.56704,3.01563 -0.0944,0.51603 -0.0944,0.51603 -0.19062,1.0425 -0.5034,2.48445 -0.5034,2.48445 -1.44188,3.54625 -1.80341,0.93808 -3.72501,1.47913 -5.6675,2.05125 -0.32855,0.0974 -0.65711,0.1948 -0.99562,0.29515 -1.09957,0.32201 -2.20139,0.63477 -3.30438,0.94485 -0.35627,0.10325 -0.71254,0.2065 -1.07961,0.31289 -2.49492,0.68333 -4.37609,1.05798 -6.72414,-0.26289 -0.41531,-0.26501 -0.82733,-0.53523 -1.23625,-0.81 -0.21867,-0.14214 -0.43735,-0.28427 -0.66265,-0.43071 -0.66945,-0.43783 -1.33372,-0.88271 -1.99735,-1.32929 -0.20764,-0.13773 -0.41528,-0.27545 -0.62922,-0.41735 -3.38935,-2.25052 -3.38935,-2.25052 -4.17078,-3.42265 0.18393,-2.04363 0.98901,-3.91228 1.7,-5.8200053 0.1252,-0.349593 0.25039,-0.699187 0.37938,-1.059374 0.12437,-0.334744 0.24873,-0.669488 0.37687,-1.014375 0.11192,-0.304503 0.22384,-0.609005 0.33914,-0.922735 0.64853,-1.255858 1.36519,-1.626449 2.67563,-2.106719 0.57184,-0.167333 0.57184,-0.167333 1.15523,-0.338047 0.20596,-0.06105 0.41192,-0.122096 0.62412,-0.184995 0.65584,-0.193755 1.31268,-0.383795 1.96963,-0.573754 0.43778,-0.128717 0.87549,-0.257673 1.31313,-0.386875 1.18128,-0.347879 2.36369,-0.691724 3.54687,-1.033125 0.38871,-0.126045 0.77741,-0.25209 1.17789,-0.381954 1.04396,-0.253637 1.43728,-0.30467996 2.40961,0.07445 z"
     fill="#868883"
     id="path10"
     style="stroke-width:0.32" />
  <path
     d="m 23.380482,16.381192 c 0,0.2112 0,0.4224 0,0.64 0.17036,0.0738 0.34073,0.14767 0.51625,0.22375 1.00283,0.54654 1.86372,1.23545 2.74375,1.95625 0.1747,0.13633 0.34939,0.27266 0.52938,0.41312 0.73177,0.59939 1.27192,1.1216 1.67562,1.98313 -0.0383,1.32462 -0.56345,2.3581 -1.125,3.54375 -0.11625,0.25188 -0.23249,0.50376 -0.35226,0.76328 -0.3623,0.77579 -0.73294,1.54689 -1.10774,2.31672 -0.11488,0.23636 -0.22976,0.47272 -0.34812,0.71625 -0.32423,0.65808 -0.65573,1.31169 -0.99188,1.96375 -0.0986,0.19568 -0.19712,0.39136 -0.29867,0.59296 -0.98986,1.86022 -2.19064,2.80369 -4.18133,3.42704 -0.49995,0.15716 -0.49995,0.15716 -1.01,0.3175 -1.61722,0.47341 -3.23955,0.92717 -4.86625,1.36695 -1.26453,0.34346 -2.49568,0.71502 -3.72375,1.17555 -1.3807396,0.40743 -2.0714296,0.39203 -3.4599996,0.04 -0.68618,-0.58062 -1.19661,-1.08037 -1.76,-1.76 -0.14968,-0.17243 -0.29937,-0.34486 -0.45359,-0.5225 -0.44221,-0.51391 -0.87528,-1.03429 -1.30641,-1.5575 -0.23512,-0.2805 -0.47025,-0.561 -0.7125,-0.85 -1.73546,-2.14255 -1.73546,-2.14255 -1.8475,-3.31 0.70941,-2.07279 2.04096,-3.97804 3.2375,-5.79875 0.42054,-0.64302 0.82795,-1.29473 1.225,-1.9525 0.21038,-0.33949 0.42075,-0.67898 0.6375,-1.02875 0.18769,-0.30979 0.37538,-0.61958 0.56875,-0.93875 1.86166,-2.1417 4.9611696,-2.71272 7.5996096,-3.48344 0.67314,-0.19826 1.34316,-0.40537 2.01352,-0.61281 0.43296,-0.12806 0.86608,-0.25557 1.29937,-0.3825 0.38757,-0.11587 0.77514,-0.23173 1.17446,-0.3511 1.71504,-0.26147 2.89928,0.15859 4.32429,1.1086 z"
     fill="#858782"
     id="path12"
     style="stroke-width:0.32" />
  <path
     d="m 46.200482,1.8011877 c 0.28566,0.161081 0.57131,0.322162 0.86563,0.488125 1.08802,0.616462 2.15353,1.237979 3.19437,1.931875 0.24437,1.91583 -0.32671,3.384833 -1.04,5.12 -0.0961,0.24585 -0.19222,0.4917 -0.29125,0.7450003 -1.7046,4.265144 -1.7046,4.265144 -3.78875,5.335004 -0.81492,0.29158 -1.61825,0.55833 -2.44625,0.805 -0.23316,0.0704 -0.46631,0.14085 -0.70654,0.21341 -0.49155,0.14746 -0.98347,0.29369 -1.47572,0.43877 -0.74738,0.2216 -1.49215,0.45076 -2.23711,0.68032 -0.48007,0.14297 -0.96028,0.28548 -1.44063,0.4275 -0.21975,0.0686 -0.43951,0.13727 -0.66592,0.20798 -1.85305,0.53195 -3.51374,0.61998 -5.27197,-0.32533 -0.22179,-0.1799 -0.44359,-0.3598 -0.67211,-0.54515 -0.24729,-0.19677 -0.49459,-0.39353 -0.74937,-0.59625 -0.24895,-0.20667 -0.49789,-0.41333 -0.75438,-0.62625 -0.38269,-0.30629 -0.38269,-0.30629 -0.77312,-0.61875 -2.36912,-1.90884 -2.36912,-1.90884 -2.96688,-2.62125 0.0306,-1.90373 0.76958,-3.3307203 1.66,-4.9600043 0.11983,-0.230588 0.23966,-0.461175 0.36313,-0.69875 1.22184,-2.278845 2.42341,-4.215243 4.95633,-5.076172 0.33687,-0.101514 0.33687,-0.101514 0.68054,-0.205078 0.23634,-0.07655 0.47267,-0.153089 0.71617,-0.231953 0.72561,-0.231224 1.45403,-0.450471 2.18383,-0.668047 0.22409,-0.06992 0.44818,-0.13983796 0.67906,-0.21187496 4.05328,-1.259986 6.31736,-1.135974 9.98094,0.99187496 z"
     fill="#858782"
     id="path14"
     style="stroke-width:0.32" />
</svg>
